<svg width="55" height="59" viewBox="0 0 55 59" fill="none" xmlns="http://www.w3.org/2000/svg">
<g filter="url(#filter0_d_5422_15819)">
<mask id="path-1-outside-1_5422_15819" maskUnits="userSpaceOnUse" x="2" y="-0.317383" width="51" height="54" fill="black">
<rect fill="white" x="2" y="-0.317383" width="51" height="54"/>
<path d="M36.585 3.68262C37.7554 3.68286 38.7041 4.6322 38.7041 5.80273V7.31641H41.7324C45.7462 7.31642 49 10.5702 49 14.584V43.0488C49 47.0626 45.7462 50.3164 41.7324 50.3164H13.2676C9.2538 50.3164 6.00001 47.0626 6 43.0488V14.584C6.00002 10.5702 9.25382 7.31642 13.2676 7.31641H15.6904V5.80273C15.6904 4.63214 16.639 3.68277 17.8096 3.68262C18.9803 3.68262 19.9297 4.63205 19.9297 5.80273V7.31641H34.4648V5.80273C34.4648 4.63205 35.4143 3.68262 36.585 3.68262Z"/>
</mask>
<path d="M36.585 3.68262C37.7554 3.68286 38.7041 4.6322 38.7041 5.80273V7.31641H41.7324C45.7462 7.31642 49 10.5702 49 14.584V43.0488C49 47.0626 45.7462 50.3164 41.7324 50.3164H13.2676C9.2538 50.3164 6.00001 47.0626 6 43.0488V14.584C6.00002 10.5702 9.25382 7.31642 13.2676 7.31641H15.6904V5.80273C15.6904 4.63214 16.639 3.68277 17.8096 3.68262C18.9803 3.68262 19.9297 4.63205 19.9297 5.80273V7.31641H34.4648V5.80273C34.4648 4.63205 35.4143 3.68262 36.585 3.68262Z" fill="white"/>
<path d="M36.585 3.68262L36.5856 0.654448H36.585V3.68262ZM38.7041 7.31641H35.6759V10.3446H38.7041V7.31641ZM41.7324 7.31641L41.7324 4.28824H41.7324V7.31641ZM49 14.584H52.0282V14.584L49 14.584ZM49 43.0488L52.0282 43.0488V43.0488H49ZM41.7324 50.3164V53.3446H41.7324L41.7324 50.3164ZM13.2676 50.3164L13.2676 53.3446H13.2676V50.3164ZM6 43.0488H2.97183V43.0488L6 43.0488ZM6 14.584L2.97183 14.584V14.584H6ZM13.2676 7.31641V4.28824H13.2676L13.2676 7.31641ZM15.6904 7.31641V10.3446H18.7186V7.31641H15.6904ZM17.8096 3.68262V0.654448H17.8092L17.8096 3.68262ZM19.9297 7.31641H16.9015V10.3446H19.9297V7.31641ZM34.4648 7.31641V10.3446H37.493V7.31641H34.4648ZM36.5843 6.71079C36.0817 6.71068 35.6759 6.30342 35.6759 5.80273H41.7323C41.7323 2.96097 39.4292 0.655045 36.5856 0.654448L36.5843 6.71079ZM35.6759 5.80273V7.31641H41.7323V5.80273H35.6759ZM38.7041 10.3446H41.7324V4.28824H38.7041V10.3446ZM41.7324 10.3446C44.0738 10.3446 45.9718 12.2426 45.9718 14.584L52.0282 14.584C52.0281 8.89782 47.4186 4.28825 41.7324 4.28824L41.7324 10.3446ZM45.9718 14.584V43.0488H52.0282V14.584H45.9718ZM45.9718 43.0488C45.9718 45.3902 44.0738 47.2882 41.7324 47.2882L41.7324 53.3446C47.4186 53.3446 52.0282 48.735 52.0282 43.0488L45.9718 43.0488ZM41.7324 47.2882H13.2676V53.3446H41.7324V47.2882ZM13.2676 47.2882C10.9262 47.2882 9.02817 45.3902 9.02817 43.0488L2.97183 43.0488C2.97184 48.735 7.58139 53.3446 13.2676 53.3446L13.2676 47.2882ZM9.02817 43.0488V14.584H2.97183V43.0488H9.02817ZM9.02817 14.584C9.02818 12.2426 10.9262 10.3446 13.2676 10.3446L13.2676 4.28824C7.5814 4.28826 2.97186 8.89781 2.97183 14.584L9.02817 14.584ZM13.2676 10.3446H15.6904V4.28824H13.2676V10.3446ZM18.7186 7.31641V5.80273H12.6623V7.31641H18.7186ZM18.7186 5.80273C18.7186 6.30314 18.3129 6.71072 17.81 6.71079L17.8092 0.654448C14.9651 0.654827 12.6623 2.96115 12.6623 5.80273H18.7186ZM17.8096 6.71079C17.3078 6.71079 16.9015 6.30446 16.9015 5.80273H22.9579C22.9579 2.95964 20.6527 0.654448 17.8096 0.654448V6.71079ZM16.9015 5.80273V7.31641H22.9579V5.80273H16.9015ZM19.9297 10.3446H34.4648V4.28824H19.9297V10.3446ZM37.493 7.31641V5.80273H31.4367V7.31641H37.493ZM37.493 5.80273C37.493 6.30446 37.0867 6.71079 36.585 6.71079V0.654448C33.7419 0.654448 31.4367 2.95964 31.4367 5.80273H37.493Z" fill="white" mask="url(#path-1-outside-1_5422_15819)"/>
<rect x="6.6053" y="7.92171" width="41.7887" height="41.7887" rx="6.66197" fill="#FEF2F3" stroke="#46090E" stroke-width="1.21127"/>
<path d="M7.21094 14.5837C7.21094 11.2389 9.92245 8.52734 13.2673 8.52734H41.7321C45.0769 8.52734 47.7884 11.2389 47.7884 14.5837V21.8513H7.21094V14.5837Z" fill="url(#paint0_linear_5422_15819)"/>
<rect x="34.7677" y="3.98543" width="3.6338" height="9.08451" rx="1.8169" fill="#46090E" stroke="white" stroke-width="0.605634"/>
<rect x="15.9923" y="3.98543" width="3.6338" height="9.08451" rx="1.8169" fill="#46090E" stroke="white" stroke-width="0.605634"/>
<g style="mix-blend-mode:color-burn">
<rect x="11.1475" y="23.9718" width="9.69014" height="6.05634" rx="1.51408" stroke="#46090E" stroke-opacity="0.3" stroke-width="0.605634"/>
<rect x="11.1475" y="31.8448" width="9.69014" height="6.05634" rx="1.51408" stroke="#46090E" stroke-opacity="0.3" stroke-width="0.605634"/>
<rect x="11.1475" y="39.7179" width="9.69014" height="6.05634" rx="1.51408" stroke="#46090E" stroke-opacity="0.3" stroke-width="0.605634"/>
<rect x="22.6544" y="23.9718" width="9.69014" height="6.05634" rx="1.51408" stroke="#46090E" stroke-opacity="0.3" stroke-width="0.605634"/>
<rect x="22.6544" y="31.8448" width="9.69014" height="6.05634" rx="1.51408" stroke="#46090E" stroke-opacity="0.3" stroke-width="0.605634"/>
<rect x="22.6544" y="39.7179" width="9.69014" height="6.05634" rx="1.51408" stroke="#46090E" stroke-opacity="0.3" stroke-width="0.605634"/>
<rect x="34.1622" y="23.9718" width="9.69014" height="6.05634" rx="1.51408" stroke="#46090E" stroke-opacity="0.3" stroke-width="0.605634"/>
<rect x="34.1622" y="31.8448" width="9.69014" height="6.05634" rx="1.51408" stroke="#46090E" stroke-opacity="0.3" stroke-width="0.605634"/>
</g>
<circle cx="37.1902" cy="40.323" r="6.35915" fill="url(#paint1_linear_5422_15819)" stroke="url(#paint2_linear_5422_15819)" stroke-width="1.21127"/>
<path d="M36.8867 37.5977V40.6258H41.1262" stroke="white" stroke-width="1.21127" stroke-linecap="round"/>
<g style="mix-blend-mode:soft-light" filter="url(#filter1_f_5422_15819)">
<rect x="10.2393" y="13.9785" width="8.47887" height="24.2254" rx="3.02817" fill="white"/>
</g>
</g>
<defs>
<filter id="filter0_d_5422_15819" x="0.549145" y="0.654297" width="53.9017" height="57.5355" filterUnits="userSpaceOnUse" color-interpolation-filters="sRGB">
<feFlood flood-opacity="0" result="BackgroundImageFix"/>
<feColorMatrix in="SourceAlpha" type="matrix" values="0 0 0 0 0 0 0 0 0 0 0 0 0 0 0 0 0 0 127 0" result="hardAlpha"/>
<feOffset dy="2.42254"/>
<feGaussianBlur stdDeviation="1.21127"/>
<feComposite in2="hardAlpha" operator="out"/>
<feColorMatrix type="matrix" values="0 0 0 0 0 0 0 0 0 0 0 0 0 0 0 0 0 0 0.25 0"/>
<feBlend mode="normal" in2="BackgroundImageFix" result="effect1_dropShadow_5422_15819"/>
<feBlend mode="normal" in="SourceGraphic" in2="effect1_dropShadow_5422_15819" result="shape"/>
</filter>
<filter id="filter1_f_5422_15819" x="8.42236" y="12.1616" width="12.1123" height="27.8594" filterUnits="userSpaceOnUse" color-interpolation-filters="sRGB">
<feFlood flood-opacity="0" result="BackgroundImageFix"/>
<feBlend mode="normal" in="SourceGraphic" in2="BackgroundImageFix" result="shape"/>
<feGaussianBlur stdDeviation="0.908451" result="effect1_foregroundBlur_5422_15819"/>
</filter>
<linearGradient id="paint0_linear_5422_15819" x1="7.21094" y1="15.1893" x2="47.7884" y2="15.1893" gradientUnits="userSpaceOnUse">
<stop stop-color="#DE2433"/>
<stop offset="1" stop-color="#BB1A27"/>
</linearGradient>
<linearGradient id="paint1_linear_5422_15819" x1="37.493" y1="30.0272" x2="37.1902" y2="43.3512" gradientUnits="userSpaceOnUse">
<stop stop-color="#3339F0"/>
<stop offset="1" stop-color="#596AFB"/>
</linearGradient>
<linearGradient id="paint2_linear_5422_15819" x1="37.1902" y1="33.9639" x2="37.1902" y2="46.6822" gradientUnits="userSpaceOnUse">
<stop stop-color="#181A4E"/>
<stop offset="1" stop-color="#373CB4"/>
</linearGradient>
</defs>
</svg>
