<svg width="60" height="61" viewBox="0 0 60 61" fill="none" xmlns="http://www.w3.org/2000/svg">
<foreignObject x="-31.6378" y="-30.8321" width="122.781" height="122.781"><div xmlns="http://www.w3.org/1999/xhtml" style="backdrop-filter:blur(15.82px);clip-path:url(#bgblur_0_6265_12469_clip_path);height:100%;width:100%"></div></foreignObject><g style="mix-blend-mode:color-burn" data-figma-bg-blur-radius="31.6368">
<path d="M29.7529 0.804688C13.3205 0.804814 -0.000976562 14.1262 -0.000976562 30.5586C-0.000926971 36.8365 1.94628 42.6586 5.26562 47.459L3.0791 55.3896C2.76783 56.5191 3.80822 57.5563 4.93652 57.2412L12.834 55.0332C17.6379 58.3604 23.467 60.3125 29.7529 60.3125C46.1854 60.3125 59.5067 46.991 59.5068 30.5586C59.5068 14.1261 46.1854 0.804688 29.7529 0.804688Z" fill="url(#paint0_radial_6265_12469)"/>
</g>
<defs>
<clipPath id="bgblur_0_6265_12469_clip_path" transform="translate(31.6378 30.8321)"><path d="M29.7529 0.804688C13.3205 0.804814 -0.000976562 14.1262 -0.000976562 30.5586C-0.000926971 36.8365 1.94628 42.6586 5.26562 47.459L3.0791 55.3896C2.76783 56.5191 3.80822 57.5563 4.93652 57.2412L12.834 55.0332C17.6379 58.3604 23.467 60.3125 29.7529 60.3125C46.1854 60.3125 59.5067 46.991 59.5068 30.5586C59.5068 14.1261 46.1854 0.804688 29.7529 0.804688Z"/>
</clipPath><radialGradient id="paint0_radial_6265_12469" cx="0" cy="0" r="1" gradientUnits="userSpaceOnUse" gradientTransform="translate(58.9716 2.57517) rotate(135.926) scale(80.8132 129.249)">
<stop stop-color="white" stop-opacity="0.4"/>
<stop offset="1" stop-color="white" stop-opacity="0"/>
</radialGradient>
</defs>
</svg>
