<svg width="24" height="24" viewBox="0 0 24 24" fill="none" xmlns="http://www.w3.org/2000/svg">
<path fill-rule="evenodd" clip-rule="evenodd" d="M3 4C3 2.89543 3.89543 2 5 2H19C20.1046 2 21 2.89543 21 4V15.1459C21 16.661 20.144 18.046 18.7889 18.7236L12 22.118L5.21114 18.7236C3.85601 18.046 3 16.661 3 15.1459V4ZM19 4L5 4V15.1459C5 15.9034 5.428 16.596 6.10557 16.9348L12 19.882L17.8944 16.9348C18.572 16.596 19 15.9034 19 15.1459V4Z" fill="#420CC0"/>
<path fill-rule="evenodd" clip-rule="evenodd" d="M5 3C4.44772 3 4 3.44772 4 4V15.1459C4 16.2822 4.64201 17.321 5.65836 17.8292L12 21L18.3416 17.8292C19.358 17.321 20 16.2822 20 15.1459V4C20 3.44772 19.5523 3 19 3H5ZM16.7071 8.70726C17.0976 8.31673 17.0976 7.68357 16.7071 7.29304C16.3166 6.90252 15.6834 6.90252 15.2929 7.29304L11 11.5859L9.70711 10.293C9.31658 9.90252 8.68342 9.90252 8.29289 10.293C7.90237 10.6836 7.90237 11.3167 8.29289 11.7073L11 14.4144L16.7071 8.70726Z" fill="#420CC0"/>
</svg>
